HIERARCHY
ROOT pelvis
{
  OFFSET 0 100 0
  CHANNELS 6 Xposition Yposition Zposition Zrotation Xrotation Yrotation
  JOINT pelvis_right_femur
  {
    OFFSET -10.78128 -3.44521 -0.5502486
    CHANNELS 3 Zrotation Xrotation Yrotation
    JOINT right_femur_tibia
    {
      OFFSET -0.8047443 -44.0398 -0.1307829
      CHANNELS 3 Zrotation Xrotation Yrotation
      JOINT right_tibia_foot
      {
        OFFSET 3.006224 -47.83518 -5
        CHANNELS 3 Zrotation Xrotation Yrotation
        End Site
        {
          OFFSET 0 -5 15
        }
      }
    }
  }
  JOINT pelvis_left_femur
  {
    OFFSET 10.78128 -3.44521 -0.5502486
    CHANNELS 3 Zrotation Xrotation Yrotation
    JOINT left_femur_tibia
    {
      OFFSET 0.8047443 -44.0398 -0.1307829
      CHANNELS 3 Zrotation Xrotation Yrotation
      JOINT left_tibia_foot
      {
        OFFSET -4.370144 -48.10324 -4.275266
        CHANNELS 3 Zrotation Xrotation Yrotation
        End Site
        {
          OFFSET 0 -5 15
        }
      }
    }
  }
  JOINT pelvis_spine1
  {
    OFFSET 0 6.468898 -3.129235
    CHANNELS 3 Zrotation Xrotation Yrotation
    JOINT spine1
    {
      OFFSET 0 23.15396 4.99043
      CHANNELS 3 Zrotation Xrotation Yrotation
      JOINT spine2
      {
        OFFSET 0 20.79997 -5.064912
        CHANNELS 3 Zrotation Xrotation Yrotation
        JOINT neck
        {
          OFFSET 0 14.38658 9.616178
          CHANNELS 3 Zrotation Xrotation Yrotation
          End Site
          {
            OFFSET 0 20 0
          }
        }
      }
      JOINT right_manubrium
      {
        OFFSET -5.722621 16.35077 3.967754
        CHANNELS 3 Zrotation Xrotation Yrotation
        JOINT right_clavicle
        {
          OFFSET -13.16364 1.694482 -4.693211
          CHANNELS 3 Zrotation Xrotation Yrotation
          JOINT right_humerus
          {
            OFFSET -28.5034 -0.3100689 -2.792744
            CHANNELS 3 Zrotation Xrotation Yrotation
            JOINT right_radius
            {
              OFFSET -25.15693 0.02248979 -1.271978
              CHANNELS 3 Zrotation Xrotation Yrotation
              End Site
              {
                OFFSET -15 0 0
              }
            }
          }
        }
      }
      JOINT left_manubrium
      {
        OFFSET 5.722621 16.35077 3.967754
        CHANNELS 3 Zrotation Xrotation Yrotation
        JOINT left_clavicle
        {
          OFFSET 13.16364 1.694482 -4.693211
          CHANNELS 3 Zrotation Xrotation Yrotation
          JOINT left_humerus
          {
            OFFSET 29.39168 -1.063119 -2.237045
            CHANNELS 3 Zrotation Xrotation Yrotation
            JOINT left_radius
            {
              OFFSET 24.59957 -0.9528479 0.9047498
              CHANNELS 3 Zrotation Xrotation Yrotation
              End Site
              {
                OFFSET 15 -0 -0
              }
            }
          }
        }
      }
    }
  }
}
MOTION
Frames: 23
Frame Time: 0.0416666666667
949.3977 106.0964 2721.548 4.157437 -4.287199 36.00156 0.05156881 -25.96284 0.1189602 -0 19.22721 -0 -7.048878 -1.825297 -7.254258 -5.144859 18.25019 -11.16633 -0 10.66039 -0 -5.105996 -24.67348 13.20418 -3.252821 1.914338 1.386286 2.2439 7.099834 -7.760572 2.411263 23.76028 5.364273 1.422073 -20.41121 8.400842 -0.8983524 -14.91664 8.582259 91.86629 24.82317 -20.3755 -0 0 9.308634 -15.57396 7.728037 8.186197 4.451059 -19.90802 -5.159024 -83.26651 29.36927 7.247935 0 0 -23.03165 -3.353656 10.0877 16.7796
952.1989 104.7892 2725.935 3.612418 -3.549782 36.34173 0.3916742 -27.80744 0.06958649 -0 14.39705 -0 -7.229625 -3.212845 -7.45453 -4.861142 19.7458 -10.98354 -0 13.33842 -0 -5.49381 -24.63206 12.16253 -3.254264 1.628454 1.22718 2.585474 6.534147 -7.889761 2.723824 23.69689 4.81353 1.28041 -20.48541 8.260155 -0.499082 -14.05716 8.484534 91.62763 24.82844 -21.20901 -0 0 8.470687 -14.61999 8.027177 7.253918 4.472765 -19.82794 -4.988076 -82.83061 29.56995 6.074753 0 0 -23.07593 -2.846922 11.00146 15.84478
955.1135 103.7721 2730.693 2.946058 -2.976151 36.7292 1.323914 -28.3456 0.5459364 -0 12.58409 -0 -7.410289 -3.953552 -7.599967 -4.411552 20.60043 -10.78913 -0 17.49717 -0 -5.851926 -23.14763 11.31679 -3.00081 1.241424 0.9795109 2.829281 6.182375 -7.940825 2.878902 23.59576 4.399007 1.243714 -20.55399 7.996258 0.2730852 -13.20916 8.588211 91.25912 25.32939 -21.77781 -0 0 7.415492 -13.70846 8.499852 6.52032 4.297543 -19.55319 -4.852887 -82.76166 29.70891 5.619434 0 0 -22.58392 -2.196968 11.71682 15.00238
958.1532 103.2441 2735.812 2.230599 -2.713793 37.12048 2.754715 -27.43311 1.476464 -0 13.37692 -0 -7.614199 -4.396996 -7.65886 -3.783152 20.57747 -10.68606 -0 23.24554 -0 -6.447099 -20.2084 10.6282 -2.440859 0.8137769 0.7328711 2.966975 6.060705 -7.904951 2.842765 23.49749 4.218261 1.330249 -20.54084 7.651925 1.266394 -12.4267 8.862172 90.74958 26.11495 -22.01734 -0 0 6.31301 -12.89644 9.136282 6.049718 4.059833 -19.23457 -4.678462 -83.07064 29.77511 5.805576 0 0 -21.82474 -1.551171 12.13177 14.47718
961.2973 103.2897 2741.189 1.622861 -2.863573 37.36352 4.353621 -25.10262 2.608722 -0 15.56631 -0 -7.877563 -4.908494 -7.579913 -3.058856 19.25046 -10.61641 -0 30.79871 -0 -7.31246 -16.21741 10.16166 -1.672521 0.4567752 0.6798422 3.019526 6.189526 -7.763105 2.681414 23.45816 4.244393 1.520699 -20.38275 7.28329 2.278732 -11.80679 9.253537 90.03268 26.84368 -21.82057 -0 0 5.447005 -12.34852 9.884797 5.891852 3.868575 -19.03146 -4.393084 -83.74602 29.61897 6.499777 0 0 -20.88096 -0.9582795 12.28106 14.24768
964.4928 103.89 2746.65 1.341754 -3.386269 37.27798 5.66973 -21.51948 3.62168 -0 17.66491 -0 -8.146894 -5.71578 -7.318603 -2.441932 16.23011 -10.38992 -0 39.91559 -0 -8.147187 -11.9742 10.12796 -0.9542921 0.3082523 1.024059 3.012862 6.582778 -7.484818 2.522144 23.53244 4.336373 1.761356 -20.06317 6.935404 3.149079 -11.50896 9.709203 89.0744 27.30637 -21.12145 -0 0 5.095558 -12.26158 10.6021 6.079356 3.706514 -18.96557 -4.034548 -84.74769 29.16264 7.636086 0 0 -19.69492 -0.4568639 12.24368 14.1575
967.6704 104.9311 2752.01 1.555273 -4.069051 36.79408 6.334212 -16.87836 4.275454 -0 18.56523 -0 -8.214419 -6.837898 -6.854792 -2.133024 11.43611 -9.85832 -0 49.23963 -0 -8.568532 -8.411211 10.72666 -0.5849075 0.4336403 1.857794 2.932328 7.199475 -7.037736 2.450871 23.73038 4.362833 1.998033 -19.60716 6.629916 3.797936 -11.69548 10.18527 87.91827 27.55161 -19.94134 -0 0 5.437984 -12.73859 11.10611 6.607961 3.517563 -18.91901 -3.713295 -85.99315 28.50422 9.208152 0 0 -18.31706 -0.1158552 12.03038 14.06511
970.777 106.1963 2757.14 2.24765 -4.638229 36.0212 6.253776 -11.43942 4.506655 -0 17.93221 -0 -7.85617 -8.129218 -6.204794 -2.136077 5.20375 -9.038981 -0 56.48579 -0 -8.432352 -6.18582 11.96712 -0.705831 0.7570601 3.085111 2.718135 7.907795 -6.413141 2.450223 23.99265 4.309925 2.203385 -19.04931 6.369245 4.19387 -12.41208 10.6417 86.62314 27.72719 -18.32898 -0 0 6.524986 -13.72455 11.31014 7.419686 3.36748 -18.7832 -3.469248 -87.34988 27.79334 11.12745 0 0 -17.01154 0.04313187 11.60845 13.88931
973.8031 107.3881 2762.012 3.197015 -4.932766 35.17054 5.6533 -5.612539 4.415504 -0 16.14088 -0 -7.048389 -9.428411 -5.430133 -2.214588 -1.817753 -8.049355 -0 59.56238 -0 -7.888537 -5.407372 13.65577 -1.193637 1.122269 4.449851 2.321846 8.526807 -5.650431 2.440099 24.22421 4.256608 2.365177 -18.42636 6.151154 4.300074 -13.55125 11.03402 85.22114 27.85617 -16.30492 -0 0 8.298986 -15.05339 11.26465 8.421728 3.420421 -18.54705 -3.234802 -88.66997 27.09718 13.18523 0 0 -16.04097 0.08407092 11.00591 13.61631
976.7884 108.2062 2766.673 4.073185 -4.973072 34.4161 4.925632 0.09677838 4.163919 -0 13.89536 -0 -6.003933 -10.68663 -4.616842 -2.033301 -8.872096 -6.972796 -0 57.58696 -0 -7.208541 -5.687533 15.50564 -1.735405 1.412338 5.656448 1.764255 8.922174 -4.839084 2.357851 24.34374 4.27683 2.462235 -17.80947 5.982976 4.065134 -14.9485 11.31658 83.76303 27.80657 -13.8994 -0 0 10.64668 -16.54567 11.06724 9.533401 3.760138 -18.2427 -2.939998 -89.86019 26.40096 15.20322 0 0 -15.40318 0.08500469 10.32916 13.31868
979.806 108.4397 2771.2 4.570473 -4.894087 33.81237 4.418787 5.237597 3.879479 -0 11.86378 -0 -5.01101 -11.96722 -3.827102 -1.345571 -15.27393 -5.824826 -0 51.09009 -0 -6.610976 -6.413753 17.23592 -2.009843 1.59517 6.500491 1.138782 9.064867 -4.09403 2.196091 24.30153 4.384076 2.464272 -17.32414 5.884209 3.468976 -16.48591 11.45592 82.3616 27.43651 -11.22609 -0 0 13.43309 -18.07063 10.77196 10.7119 4.286756 -17.86913 -2.597425 -90.91634 25.66841 17.16684 0 0 -14.8164 0.0631857 9.687418 13.1338
982.9386 108.0315 2775.684 4.523916 -4.828771 33.29755 4.278894 9.529537 3.626362 -0 10.53309 -0 -4.244111 -13.33881 -3.072046 -0.1462039 -20.49309 -4.639837 -0 41.66703 -0 -6.185487 -7.036916 18.62926 -1.855249 1.677589 6.937222 0.5659527 9.015735 -3.516449 1.993484 24.08219 4.540322 2.35593 -17.10607 5.876298 2.583101 -18.09052 11.44099 81.16542 26.74786 -8.51532 -0 0 16.46695 -19.54719 10.38105 11.92593 4.773736 -17.38955 -2.284388 -91.87782 24.89363 19.16975 0 0 -13.92779 -0.01821095 9.132544 13.17507
986.2653 107.0952 2780.223 3.992491 -4.816036 32.7569 4.379266 12.91028 3.426042 -0 10.23043 -0 -3.672923 -14.72211 -2.330054 1.234075 -24.18991 -3.593879 -0 31.51102 -0 -5.894053 -7.260681 19.57016 -1.363688 1.642523 7.078508 0.1336597 8.869654 -3.152153 1.813148 23.71678 4.690717 2.16638 -17.20722 5.966669 1.593482 -19.64905 11.2853 80.28606 25.925 -6.084727 -0 0 19.43023 -20.91391 9.89465 13.10457 5.010502 -16.78133 -2.072779 -92.75148 24.14092 21.23725 0 0 -12.55747 -0.1924279 8.664141 13.4478
989.8594 105.8782 2784.923 3.275278 -4.776788 32.11394 4.361995 15.52325 3.286575 -0 11.18256 -0 -3.107975 -15.74784 -1.591574 2.180023 -26.26087 -3.031459 -0 22.88591 -0 -5.625962 -7.108963 20.05954 -0.86396 1.433285 7.134315 -0.1473153 8.705909 -2.961511 1.722788 23.29132 4.796226 1.980854 -17.52867 6.137043 0.7522986 -20.94571 11.02576 79.75313 25.22566 -4.257834 -0 0 21.87756 -22.10511 9.361163 14.12155 4.931305 -16.07924 -1.979198 -93.48832 23.55301 23.21509 0 0 -10.82876 -0.4542595 8.266471 13.86412
993.7835 104.6787 2789.879 2.806157 -4.590357 31.40264 3.826797 17.60872 3.222405 -0 13.58217 -0 -2.369865 -15.74531 -0.9105224 2.083128 -26.84173 -3.292803 -0 17.45751 -0 -5.282989 -6.859553 20.18952 -0.7589588 0.9970288 7.303652 -0.3465302 8.575166 -2.831867 1.768803 22.92084 4.852961 1.908981 -17.86484 6.345946 0.2646425 -21.72059 10.71743 79.55429 24.80351 -3.255882 -0 0 23.37951 -23.05032 8.882599 14.84543 4.64501 -15.37746 -1.972002 -94.02917 23.28148 24.83858 0 0 -9.105831 -0.7746842 7.92629 14.349
998.0617 103.7622 2795.128 2.923512 -4.23723 30.77155 2.610873 19.26689 3.261438 -0 17.68341 -0 -1.486702 -14.00218 -0.43941 0.7468584 -26.16785 -4.4343 -0 15.68524 -0 -4.832187 -6.855266 20.09263 -1.267392 0.3542076 7.64054 -0.5600001 8.524188 -2.659114 1.943634 22.69109 4.889884 2.012054 -18.05887 6.547175 0.1822861 -21.83605 10.42221 79.71806 24.62775 -3.115579 -0 0 23.73377 -23.6914 8.562882 15.21472 4.329364 -14.79427 -2.021379 -94.34637 23.35373 25.91074 0 0 -7.75951 -1.118974 7.626799 14.89793
1002.638 103.3226 2800.62 3.645321 -3.876643 30.42007 0.9726731 20.2068 3.412759 -0 23.80003 -0 -0.7408676 -10.23003 -0.3812087 -1.424812 -24.36421 -6.100589 -0 16.71249 -0 -4.28009 -7.296485 19.89739 -2.253071 -0.3569284 7.981532 -0.8266221 8.620509 -2.457468 2.168822 22.61778 4.949398 2.246693 -18.13533 6.713677 0.4007439 -21.39788 10.20168 80.32936 24.58925 -3.699481 -0 0 23.04815 -24.00304 8.441377 15.26248 4.073962 -14.43527 -2.140785 -94.41586 23.60253 26.38895 0 0 -6.938649 -1.420346 7.360327 15.48285
1007.359 103.4761 2806.21 4.648685 -3.758822 30.51131 -0.4999221 19.74562 3.6015 -0 31.94411 -0 -0.4904584 -4.886932 -0.8387083 -3.644628 -21.39189 -7.694635 -0 18.90279 -0 -3.623373 -8.168263 19.70187 -3.304418 -0.9050702 8.0236 -1.084313 8.930151 -2.387614 2.32211 22.66088 5.070991 2.490873 -18.26686 6.850222 0.7547713 -20.69073 10.11047 81.44873 24.66848 -4.803331 -0 0 21.61273 -24.00116 8.471889 15.07422 3.832073 -14.38319 -2.382261 -94.16391 23.77307 26.29148 0 0 -6.578683 -1.558813 7.160266 15.94133
1012.015 104.2323 2811.695 5.500984 -4.039046 31.09251 -1.254165 17.20203 3.68976 -0 41.20148 -0 -0.9316525 0.9273867 -1.710866 -5.224592 -17.21979 -8.751336 -0 20.64693 -0 -2.87059 -9.345988 19.5528 -4.007445 -1.074148 7.526367 -1.209059 9.44698 -2.645169 2.305958 22.76852 5.284108 2.636373 -18.60253 6.984336 1.098916 -19.98489 10.1663 83.02639 24.95551 -6.2714 -0 0 19.72015 -23.7248 8.557935 14.73281 3.52735 -14.69027 -2.794127 -93.4923 23.74352 25.58184 0 0 -6.650858 -1.442761 7.082234 16.07674
1016.411 105.4494 2816.876 5.945079 -4.658226 32.06191 -1.151024 12.42955 3.609831 -0 49.56907 -0 -1.985249 5.916001 -2.764504 -5.948712 -12.03261 -9.220115 -0 20.95959 -0 -2.120985 -10.75589 19.42376 -4.186818 -0.7932342 6.486162 -1.104611 10.0369 -3.298221 2.111213 22.90562 5.593848 2.655166 -19.13008 7.14454 1.317977 -19.39776 10.3128 84.89323 25.49546 -8.025805 -0 0 17.61259 -23.20153 8.604183 14.28917 3.178042 -15.34124 -3.373851 -92.38385 23.65722 24.20389 0 0 -7.343111 -1.1535 7.13239 15.91006
1020.437 106.8419 2821.635 5.995707 -5.381326 33.22362 -0.5030785 6.01261 3.39869 -0 54.77594 -0 -3.3422 9.07219 -3.795886 -6.042863 -6.272928 -9.396487 -0 19.65842 -0 -1.57963 -12.42979 19.21533 -3.947253 -0.1739436 5.139845 -0.7667851 10.47417 -4.227398 1.82276 23.05798 5.960141 2.582606 -19.69416 7.345007 1.323326 -18.90194 10.42959 86.81912 26.1556 -10.00834 -0 0 15.52342 -22.4356 8.549871 13.75428 2.89949 -16.22464 -4.047206 -90.95651 23.82796 22.1967 0 0 -8.915886 -0.9622864 7.254256 15.74594
1024.076 108.0681 2825.968 5.820189 -5.943256 34.38515 0.2206642 -1.047778 3.085827 -0 55.47172 -0 -4.633088 9.985649 -4.712758 -5.865016 -0.4972463 -9.610724 -0 17.18424 -0 -1.453085 -14.42491 18.80003 -3.536856 0.5735772 3.811959 -0.2730827 10.56323 -5.214708 1.564288 23.22304 6.299008 2.458938 -20.12737 7.582256 1.076766 -18.41663 10.39888 88.58278 26.67539 -12.11748 -0 0 13.67873 -21.43848 8.381512 13.10846 2.810576 -17.17287 -4.690279 -89.3952 24.48994 19.72201 0 0 -11.39564 -1.137553 7.400801 15.91452
1027.377 108.8395 2829.962 5.57367 -6.176692 35.41431 0.6773035 -7.837946 2.641471 -0 51.73019 -0 -5.6164 8.878845 -5.49413 -5.660409 4.818831 -10.00016 -0 14.26688 -0 -1.819744 -16.71684 18.08878 -3.180438 1.254483 2.748332 0.2794514 10.24173 -6.078927 1.434099 23.39561 6.514923 2.299244 -20.35798 7.838002 0.6133942 -17.87964 10.17143 90.0207 26.83278 -14.20809 -0 0 12.23265 -20.26558 8.13226 12.32743 2.957739 -18.04551 -5.181621 -87.85329 25.6135 16.99438 0 0 -14.45824 -1.725367 7.588549 16.46966
